{"title":"Midden in de Winternacht 2013 DVDrip Dutch English Klam","uid":11458309,"size":1081068983,"categoryP":"video","categoryS":"movies","magnet":"?xt=urn:btih:c6e818613635187c516827847f20985f2cdbd355&amp;dn=Midden+in+de+Winternacht+2013+DVDrip+Dutch+English+Klam&amp;tr=udp%3A%2F%2Ftracker.openbittorrent.com%3A80&amp;tr=udp%3A%2F%2Fopen.demonii.com%3A1337&amp;tr=udp%3A%2F%2Ftracker.coppersurfer.tk%3A6969&amp;tr=udp%3A%2F%2Fexodus.desync.com%3A6969","seeders":4,"leechers":1,"uploader":"Klambake","files":-1,"time":1415965672,"description":"With: Derek de Lint, Jelka van Houten and Arjan Ederveen\n\nEen week voor kerst ziet Max een hele grote eland door het dak van de schuur vallen. Deze eland, genaamd Moos, blijkt te kunnen praten! En dat niet alleen, hij werkt ook nog eens voor de Kerstman. Moos maakt altijd de testvluchten met de Kerstman, voordat de rendieren het echte werk doen met kerst. Helaas is Moos de controle over de slee verloren en is de Kerstman ver weg van hem neergestort. Dus nu moet hij vliegensvlug de Kerstman vinden, anders krijgt niemand een kerstcadeautje dit jaar. Zal het Max en Moos lukken de Kerstman te vinden en de slee op tijd weer in de lucht te krijgen?\n\nNo hardcoded Subs!\n\nWhen his father cannot make it home Max is convinced that Christmas will be extremely boring this year. But then Mr. Moose crashes through his roof and he is not so sure anymore.\n &lt;a href=&quot;\nhttp://www.imdb.com/title/tt2389456&quot; rel=&quot;nofollow&quot; target=&quot;_NEW&quot;&gt;\nhttp://www.imdb.com/title/tt2389456&lt;/a&gt;\n\n--------------------- Dutch Friends 4ever ---------------------\n---------------------------------------------------------------\n- Bezoek ook eens mijn vrienden op: &lt;a href=&quot; http://www.Film-Test.nl&quot; rel=&quot;nofollow&quot; target=&quot;_NEW&quot;&gt; http://www.Film-Test.nl&lt;/a&gt; --\n----- voor mijn Nederlandse Sync. ondertitels ---- en meer ----\n------- http://www.Film-Test.nl ---- Over Films en meer -------\n---------------------------------------------------------------\n &lt;a href=&quot;\nhttp://i.imgur.com/T8WQdn0.jpg&quot; rel=&quot;nofollow&quot; target=&quot;_NEW&quot;&gt;\nhttp://i.imgur.com/T8WQdn0.jpg&lt;/a&gt; &lt;a href=&quot;\nhttp://i.imgur.com/lRnvsE3.jpg&quot; rel=&quot;nofollow&quot; target=&quot;_NEW&quot;&gt;\nhttp://i.imgur.com/lRnvsE3.jpg&lt;/a&gt; &lt;a href=&quot;\nhttp://i.imgur.com/GypmaPw.jpg&quot; rel=&quot;nofollow&quot; target=&quot;_NEW&quot;&gt;\nhttp://i.imgur.com/GypmaPw.jpg&lt;/a&gt;\n\nGeneral:\n\nComplete name                            : Midden in de WinternachtMidden in de Winternacht.avi\nFormat                                   : AVI\nFormat/Info                              : Audio Video Interleave\nFile size                                : 1.00 GiB\nDuration                                 : 1h 19mn\nOverall bit rate                         : 1 797 Kbps\n\nVideo:\n\nFormat                                   : MPEG-4 Visual\nFormat profile                           : Simple@L3\nFormat settings, BVOP                    : No\nFormat settings, QPel                    : No\nFormat settings, GMC                     : No warppoints\nFormat settings, Matrix                  : Default (H.263)\nCodec ID                                 : XVID\nCodec ID/Hint                            : XviD\nDuration                                 : 1h 19mn\nBit rate                                 : 1 338 Kbps\nWidth                                    : 720 pixels\nHeight                                   : 304 pixels\nDisplay aspect ratio                     : 2.35:1\nFrame rate                               : 25.000 fps\nColor space                              : YUV\nChroma subsampling                       : 4:2:0\nBit depth                                : 8 bits\nScan type                                : Progressive\nCompression mode                         : Lossy\nBits/(Pixel*Frame)                       : 0.244\nStream size                              : 765 MiB (74%)\nWriting library                          : XviD 1.1.2 (UTC 2006-11-01)\n\nAudio:\n\nFormat                                   : AC-3\nFormat/Info                              : Audio Coding 3\nMode extension                           : CM (complete main)\nFormat settings, Endianness              : Big\nCodec ID                                 : 2000\nDuration                                 : 1h 19mn\nSource duration                          : 1h 19mn\nBit rate mode                            : Constant\nBit rate                                 : 448 Kbps\nChannel(s)                               : 6 channels\nChannel positions                        : Front: L C R, Side: L R, LFE\nSampling rate                            : 48.0 KHz\nBit depth                                : 16 bits\nCompression mode                         : Lossy\nStream size                              : 256 MiB (25%)\nAlignment                                : Aligned on interleaves\nInterleave, duration                     : 32 ms (0.80 video frame)\nInterleave, preload duration             : 512 ms","torrent":{"xt":"urn:btih:c6e818613635187c516827847f20985f2cdbd355","amp;dn":"Midden+in+de+Winternacht+2013+DVDrip+Dutch+English+Klam","amp;tr":["udp%3A%2F%2Ftracker.openbittorrent.com%3A80","udp%3A%2F%2Fopen.demonii.com%3A1337","udp%3A%2F%2Ftracker.coppersurfer.tk%3A6969","udp%3A%2F%2Fexodus.desync.com%3A6969"],"infoHash":"c6e818613635187c516827847f20985f2cdbd355","infoHashBuffer":{"type":"Buffer","data":[198,232,24,97,54,53,24,124,81,104,39,132,127,32,152,95,44,219,211,85]},"announce":[],"urlList":[]}}